<?xml version="1.0" encoding="UTF-8" standalone="no" ?>
<!DOCTYPE svg PUBLIC "-//W3C//DTD SVG 1.1//EN" "http://www.w3.org/Graphics/SVG/1.1/DTD/svg11.dtd">
<svg xmlns="http://www.w3.org/2000/svg" xmlns:xlink="http://www.w3.org/1999/xlink" version="1.1" width="1080" height="1080" viewBox="3.52 -26.19 1080 1080" xml:space="preserve">
<desc>Created with Fabric.js 5.2.4</desc>
<defs>
</defs>
<g transform="matrix(1 0 0 1 540 540)" id="123e7706-885b-4a4e-847c-de67f4d26dea"  >
</g>
<g transform="matrix(1 0 0 1 540 540)" id="0b507075-ad7f-4eac-81d5-60139ad2ba92"  >
<rect style="stroke: none; stroke-width: 1; stroke-dasharray: none; stroke-linecap: butt; stroke-dashoffset: 0; stroke-linejoin: miter; stroke-miterlimit: 4; fill: rgb(255,255,255); fill-rule: nonzero; opacity: 1; visibility: hidden;" vector-effect="non-scaling-stroke"  x="-540" y="-540" rx="0" ry="0" width="1080" height="1080" />
</g>
<g transform="matrix(1 0 0 1 442.57 738.47)"  >
<path style="stroke: none; stroke-width: 1; stroke-dasharray: none; stroke-linecap: butt; stroke-dashoffset: 0; stroke-linejoin: miter; stroke-miterlimit: 4; fill: rgb(63,61,86); fill-rule: nonzero; opacity: 1;" vector-effect="non-scaling-stroke"  transform=" translate(-502.57, -669.12)" d="M 467.02264 693.80667 L 467.30211 692.6950800000001 C 467.36397000000005 692.45077 473.66845 668.1177700000001 492.69863000000004 654.9050800000001 C 511.72963000000004 641.6917900000001 536.7312800000001 644.2890800000001 536.98109 644.3169300000001 L 538.12062 644.4433700000001 L 537.8411 645.55447 C 537.77923 645.79879 531.47469 670.13131 512.44458 683.34447 C 493.41357999999997 696.55777 468.41191999999995 693.96047 468.16211 693.93263 Z M 493.83923000000004 656.54827 C 477.74911000000003 667.71927 471.04677000000004 687.14205 469.56887000000006 692.0383400000001 C 474.6744100000001 692.36147 495.22931000000005 692.8621200000001 511.3038700000001 681.70127 C 527.3765800000001 670.54161 534.0916900000001 651.1099800000001 535.5742200000001 646.2112 C 530.46577 645.88791 509.91292 645.388 493.83923 656.54827 Z" stroke-linecap="round" />
</g>
<g transform="matrix(1 0 0 1 425.91 725.02)"  >
<path style="stroke: none; stroke-width: 1; stroke-dasharray: none; stroke-linecap: butt; stroke-dashoffset: 0; stroke-linejoin: miter; stroke-miterlimit: 4; fill: rgb(213,169,65); fill-rule: nonzero; opacity: 1;" vector-effect="non-scaling-stroke"  transform=" translate(-485.92, -655.66)" d="M 500.74881 662.45318 C 491.15081 683.42218 468.53902 693.6323699999999 468.53902 693.6323699999999 C 468.53902 693.6323699999999 461.48858 669.84511 471.08653 648.87614 C 480.68447999999995 627.90717 503.29632 617.697 503.29632 617.697 C 503.29632 617.697 510.34677 641.48421 500.74881 662.45318 Z" stroke-linecap="round" />
</g>
<g transform="matrix(1.02 0 0 1.11 371.64 560.34)"  >
<path style="stroke: none; stroke-width: 1; stroke-dasharray: none; stroke-linecap: butt; stroke-dashoffset: 0; stroke-linejoin: miter; stroke-miterlimit: 4; fill: rgb(63,61,86); fill-rule: nonzero; opacity: 1;" vector-effect="non-scaling-stroke"  transform=" translate(-430.24, -517.29)" d="M 257.10591 686.22489 C 246.75617 654.3947599999999 245.90891 618.22201 263.40012 588.6916699999999 C 270.83569 576.13825 281.28622 565.29819 294.10378000000003 558.2121 C 308.88878000000005 550.03833 325.95605 547.3646699999999 342.65303000000006 546.99633 C 378.9593500000001 546.1954 415.0184300000001 554.96494 451.32803000000007 550.43144 C 467.61876000000007 548.39744 483.8686000000001 543.8337799999999 497.8328200000001 534.9845799999999 C 509.90672000000006 527.33328 520.3864400000001 516.6264 526.5712800000001 503.64111999999994 C 532.5971449528553 491.249047587205 533.960648392078 477.10186299645716 530.4124100000001 463.78703999999993 C 526.9807900000002 451.19443999999993 518.9039700000002 439.42011999999994 507.09356000000014 433.39088999999996 C 496.36274000000014 427.91279999999995 483.19001000000014 427.76750999999996 472.1017400000001 432.29832999999996 C 460.1734800000001 437.17233 451.5847400000001 447.25415 449.7576500000001 460.15767999999997 C 447.47842000000014 476.25449 454.7262700000001 492.18068 462.7945800000001 505.65430999999995 C 470.5607000000001 518.62331 479.9755800000001 530.7954699999999 491.4153900000001 540.73744 C 502.4962200000001 550.36744 515.5628200000001 557.95844 529.9349000000001 561.33127 C 543.56996 564.5310900000001 558.2759000000001 564.24834 571.5300500000001 559.52212 C 585.2045717508306 554.631212143781 596.6025854945844 544.8816915823485 603.5534500000001 532.13026 C 611.3123200000001 518.09706 614.0211800000001 501.88326 613.7547200000001 485.99766 C 613.4400200000001 467.23681 609.4805100000001 448.66427 605.9462500000002 430.30649999999997 Q 600.5694300000002 402.37807 594.3898000000002 374.61222 Q 591.3781000000001 361.07808 588.1763500000002 347.58727999999996 C 587.7310900000002 345.70951999999994 584.8376500000002 346.50449999999995 585.2835100000002 348.3848 C 593.7717800000003 384.18201 601.7070900000002 420.265 607.7284200000003 456.56849 C 610.5866300000002 473.80106 612.3767200000002 491.67463 608.7928800000003 508.94191 C 605.7707500000004 523.50281 598.9882800000003 537.61921 587.3883000000003 547.25296 C 565.2523800000004 565.6367700000001 532.2348900000003 563.3091000000001 508.5430800000003 549.43631 C 495.7660200000003 541.9546700000001 484.9268200000003 531.4757500000001 475.95281000000034 519.7666300000001 C 466.67617000000035 507.6626300000001 458.03593000000035 493.81993000000006 454.12015000000036 478.9607500000001 C 452.0982600000004 471.28830000000005 451.52242000000035 463.0988500000001 453.85728000000034 455.42586000000006 C 455.6599423079724 449.5237611723416 459.1959529413102 444.3002116474304 464.00591000000037 440.43386000000004 C 473.01510000000036 433.12464000000006 485.75182000000035 430.50025000000005 497.0104500000004 432.96303000000006 C 509.6956800000004 435.7378800000001 519.5093400000004 445.2843500000001 524.7754500000004 456.89587000000006 C 530.24335771818 469.16447351554797 530.8814725772717 483.04431448321884 526.5623300000004 495.7628700000001 C 522.0201500000004 509.18673000000007 512.6007900000004 520.6611300000001 501.27707000000044 529.0054500000001 C 488.3873500000004 538.50376 473.02459000000044 543.8914500000001 457.3371900000004 546.5464500000002 C 422.14144000000044 552.5030300000002 386.78619000000043 544.7132600000002 351.5248300000004 543.9979800000002 C 335.45597000000043 543.6719800000002 318.9856100000004 544.9085500000002 303.7984200000004 550.5252700000002 C 290.26870910525906 555.5651504760106 278.31963159654765 564.1067822411526 269.1723000000004 575.2772700000002 C 249.1060200000004 599.6196900000001 243.5513000000004 631.9227400000002 248.3012000000004 662.5450200000001 C 249.613657365051 670.8492362252362 251.59064062212033 679.0346906316169 254.21310000000037 687.0225100000001 C 254.8075500000004 688.8507200000001 257.7053300000004 688.0684200000002 257.1059300000004 686.2249900000002 Z" stroke-linecap="round" />
</g>
<g transform="matrix(1 0 0 1 194.55 755.84)"  >
<rect style="stroke: none; stroke-width: 1; stroke-dasharray: none; stroke-linecap: butt; stroke-dashoffset: 0; stroke-linejoin: miter; stroke-miterlimit: 4; fill: rgb(4,37,99); fill-rule: nonzero; opacity: 1;" vector-effect="non-scaling-stroke"  x="-9.5" y="-7.5" rx="0" ry="0" width="19" height="15" />
</g>
<g transform="matrix(1 0 0 1 754.49 321.43)"  >
<path style="stroke: none; stroke-width: 1; stroke-dasharray: none; stroke-linecap: butt; stroke-dashoffset: 0; stroke-linejoin: miter; stroke-miterlimit: 4; fill: rgb(255,255,255); fill-rule: nonzero; opacity: 1;" vector-effect="non-scaling-stroke"  transform=" translate(-814.49, -252.08)" d="M 586.9255 347.95452 L 925.8131 347.95452 C 990.01073 347.95452 1042.05315 311.36393 1042.05315 247.16631999999998 L 1042.05315 247.16609999999997 C 1042.05315 182.96848999999997 990.01073 156.21090999999996 925.81315 156.21090999999996 L 819.4056 156.21090999999996 C 691.01039 156.21090999999996 586.9255 219.55906999999996 586.9255 347.95428999999996 Z" stroke-linecap="round" />
</g>
<g transform="matrix(1 0 0 1 754.49 321.43)"  >
<path style="stroke: none; stroke-width: 1; stroke-dasharray: none; stroke-linecap: butt; stroke-dashoffset: 0; stroke-linejoin: miter; stroke-miterlimit: 4; fill: rgb(213,169,65); fill-rule: nonzero; opacity: 1;" vector-effect="non-scaling-stroke"  transform=" translate(-814.49, -252.08)" d="M 925.81316 350.9543 L 583.92546 350.9543 L 583.92546 347.9543 C 583.92546 286.52315 607.88201 235.89522 653.2052500000001 201.54366 C 694.9237600000001 169.92451 752.3947000000001 153.21114 819.40569 153.21114 L 925.81316 153.21114 C 960.1857200000001 153.21114 989.20232 160.79951 1009.7267300000001 175.15645 C 1033.16765 191.55293 1045.0531500000002 215.78045 1045.0531500000002 247.16621 C 1045.0531500000002 278.63252 1032.8988500000003 305.18672000000004 1009.9044700000002 323.95821 C 988.57952 341.3669 958.7155 350.9543 925.81316 350.9543 Z M 589.94402 344.9543 L 925.81316 344.9543 C 993.5455800000001 344.9543 1039.05316 305.65645 1039.05316 247.16620999999998 C 1039.05316 167.78144999999998 959.8610199999999 159.21113999999997 925.8131599999999 159.21113999999997 L 819.40569 159.21113999999997 C 709.26677 159.21114 591.63274 208.07539 589.944 344.9543 Z" stroke-linecap="round" />
</g>
<g transform="matrix(1 0 0 1 702.11 290.3)"  >
<rect style="stroke: none; stroke-width: 1; stroke-dasharray: none; stroke-linecap: butt; stroke-dashoffset: 0; stroke-linejoin: miter; stroke-miterlimit: 4; fill: rgb(4,37,99); fill-rule: nonzero; opacity: 1;" vector-effect="non-scaling-stroke"  x="-20.015" y="-4.82" rx="0" ry="0" width="40.03" height="9.64" />
</g>
<g transform="matrix(1 0 0 1 853.69 290.3)"  >
<rect style="stroke: none; stroke-width: 1; stroke-dasharray: none; stroke-linecap: butt; stroke-dashoffset: 0; stroke-linejoin: miter; stroke-miterlimit: 4; fill: rgb(4,37,99); fill-rule: nonzero; opacity: 1;" vector-effect="non-scaling-stroke"  x="-7.04" y="-4.82" rx="0" ry="0" width="14.08" height="9.64" />
</g>
<g transform="matrix(1 0 0 1 881.86 290.3)"  >
<rect style="stroke: none; stroke-width: 1; stroke-dasharray: none; stroke-linecap: butt; stroke-dashoffset: 0; stroke-linejoin: miter; stroke-miterlimit: 4; fill: rgb(4,37,99); fill-rule: nonzero; opacity: 1;" vector-effect="non-scaling-stroke"  x="-7.04" y="-4.82" rx="0" ry="0" width="14.08" height="9.64" />
</g>
<g transform="matrix(1 0 0 1 784.01 290.3)"  >
<rect style="stroke: none; stroke-width: 1; stroke-dasharray: none; stroke-linecap: butt; stroke-dashoffset: 0; stroke-linejoin: miter; stroke-miterlimit: 4; fill: rgb(4,37,99); fill-rule: nonzero; opacity: 1;" vector-effect="non-scaling-stroke"  x="-47.81" y="-4.82" rx="0" ry="0" width="95.62" height="9.64" />
</g>
<g transform="matrix(1 0 0 1 651.71 352.57)"  >
<rect style="stroke: none; stroke-width: 1; stroke-dasharray: none; stroke-linecap: butt; stroke-dashoffset: 0; stroke-linejoin: miter; stroke-miterlimit: 4; fill: rgb(4,37,99); fill-rule: nonzero; opacity: 1;" vector-effect="non-scaling-stroke"  x="-20.015" y="-4.82" rx="0" ry="0" width="40.03" height="9.64" />
</g>
<g transform="matrix(1 0 0 1 803.28 352.57)"  >
<rect style="stroke: none; stroke-width: 1; stroke-dasharray: none; stroke-linecap: butt; stroke-dashoffset: 0; stroke-linejoin: miter; stroke-miterlimit: 4; fill: rgb(4,37,99); fill-rule: nonzero; opacity: 1;" vector-effect="non-scaling-stroke"  x="-7.04" y="-4.82" rx="0" ry="0" width="14.08" height="9.64" />
</g>
<g transform="matrix(1 0 0 1 831.45 352.57)"  >
<rect style="stroke: none; stroke-width: 1; stroke-dasharray: none; stroke-linecap: butt; stroke-dashoffset: 0; stroke-linejoin: miter; stroke-miterlimit: 4; fill: rgb(4,37,99); fill-rule: nonzero; opacity: 1;" vector-effect="non-scaling-stroke"  x="-7.04" y="-4.82" rx="0" ry="0" width="14.08" height="9.64" />
</g>
<g transform="matrix(1 0 0 1 733.61 352.57)"  >
<rect style="stroke: none; stroke-width: 1; stroke-dasharray: none; stroke-linecap: butt; stroke-dashoffset: 0; stroke-linejoin: miter; stroke-miterlimit: 4; fill: rgb(4,37,99); fill-rule: nonzero; opacity: 1;" vector-effect="non-scaling-stroke"  x="-47.81" y="-4.82" rx="0" ry="0" width="95.62" height="9.64" />
</g>
<g transform="matrix(1 0 0 1 817 311.8)"  >
<rect style="stroke: none; stroke-width: 1; stroke-dasharray: none; stroke-linecap: butt; stroke-dashoffset: 0; stroke-linejoin: miter; stroke-miterlimit: 4; fill: rgb(4,37,99); fill-rule: nonzero; opacity: 1;" vector-effect="non-scaling-stroke"  x="-20.015" y="-4.82" rx="0" ry="0" width="40.03" height="9.64" />
</g>
<g transform="matrix(1 0 0 1 871.12 311.8)"  >
<rect style="stroke: none; stroke-width: 1; stroke-dasharray: none; stroke-linecap: butt; stroke-dashoffset: 0; stroke-linejoin: miter; stroke-miterlimit: 4; fill: rgb(4,37,99); fill-rule: nonzero; opacity: 1;" vector-effect="non-scaling-stroke"  x="-20.015" y="-4.82" rx="0" ry="0" width="40.03" height="9.64" />
</g>
<g transform="matrix(1 0 0 1 912.25 311.8)"  >
<rect style="stroke: none; stroke-width: 1; stroke-dasharray: none; stroke-linecap: butt; stroke-dashoffset: 0; stroke-linejoin: miter; stroke-miterlimit: 4; fill: rgb(4,37,99); fill-rule: nonzero; opacity: 1;" vector-effect="non-scaling-stroke"  x="-7.04" y="-4.82" rx="0" ry="0" width="14.08" height="9.64" />
</g>
<g transform="matrix(1 0 0 1 666.89 311.8)"  >
<rect style="stroke: none; stroke-width: 1; stroke-dasharray: none; stroke-linecap: butt; stroke-dashoffset: 0; stroke-linejoin: miter; stroke-miterlimit: 4; fill: rgb(4,37,99); fill-rule: nonzero; opacity: 1;" vector-effect="non-scaling-stroke"  x="-7.04" y="-4.82" rx="0" ry="0" width="14.08" height="9.64" />
</g>
<g transform="matrix(1 0 0 1 735.83 311.8)"  >
<rect style="stroke: none; stroke-width: 1; stroke-dasharray: none; stroke-linecap: butt; stroke-dashoffset: 0; stroke-linejoin: miter; stroke-miterlimit: 4; fill: rgb(4,37,99); fill-rule: nonzero; opacity: 1;" vector-effect="non-scaling-stroke"  x="-47.81" y="-4.82" rx="0" ry="0" width="95.62" height="9.64" />
</g>
<g transform="matrix(1 0 0 1 733.99 332.55)"  >
<rect style="stroke: none; stroke-width: 1; stroke-dasharray: none; stroke-linecap: butt; stroke-dashoffset: 0; stroke-linejoin: miter; stroke-miterlimit: 4; fill: rgb(4,37,99); fill-rule: nonzero; opacity: 1;" vector-effect="non-scaling-stroke"  x="-20.015" y="-4.82" rx="0" ry="0" width="40.03" height="9.64" />
</g>
<g transform="matrix(1 0 0 1 679.87 332.55)"  >
<rect style="stroke: none; stroke-width: 1; stroke-dasharray: none; stroke-linecap: butt; stroke-dashoffset: 0; stroke-linejoin: miter; stroke-miterlimit: 4; fill: rgb(4,37,99); fill-rule: nonzero; opacity: 1;" vector-effect="non-scaling-stroke"  x="-20.015" y="-4.82" rx="0" ry="0" width="40.03" height="9.64" />
</g>
<g transform="matrix(1 0 0 1 912.25 332.55)"  >
<rect style="stroke: none; stroke-width: 1; stroke-dasharray: none; stroke-linecap: butt; stroke-dashoffset: 0; stroke-linejoin: miter; stroke-miterlimit: 4; fill: rgb(4,37,99); fill-rule: nonzero; opacity: 1;" vector-effect="non-scaling-stroke"  x="-7.04" y="-4.82" rx="0" ry="0" width="14.08" height="9.64" />
</g>
<g transform="matrix(1 0 0 1 884.08 332.55)"  >
<rect style="stroke: none; stroke-width: 1; stroke-dasharray: none; stroke-linecap: butt; stroke-dashoffset: 0; stroke-linejoin: miter; stroke-miterlimit: 4; fill: rgb(4,37,99); fill-rule: nonzero; opacity: 1;" vector-effect="non-scaling-stroke"  x="-7.04" y="-4.82" rx="0" ry="0" width="14.08" height="9.64" />
</g>
<g transform="matrix(1 0 0 1 815.15 332.55)"  >
<rect style="stroke: none; stroke-width: 1; stroke-dasharray: none; stroke-linecap: butt; stroke-dashoffset: 0; stroke-linejoin: miter; stroke-miterlimit: 4; fill: rgb(4,37,99); fill-rule: nonzero; opacity: 1;" vector-effect="non-scaling-stroke"  x="-47.81" y="-4.82" rx="0" ry="0" width="95.62" height="9.64" />
</g>
<g transform="matrix(1 0 0 1 286.45 763.34)"  >
<path style="stroke: none; stroke-width: 1; stroke-dasharray: none; stroke-linecap: butt; stroke-dashoffset: 0; stroke-linejoin: miter; stroke-miterlimit: 4; fill: rgb(63,61,86); fill-rule: nonzero; opacity: 1;" vector-effect="non-scaling-stroke"  transform=" translate(-346.45, -693.99)" d="M 536.94685 694.986 L 155.94685000000004 694.986 C 155.39456525016925 694.986 154.94685000000004 694.5382847498308 154.94685000000004 693.986 C 154.94685000000004 693.4337152501691 155.39456525016925 692.986 155.94685000000004 692.986 L 536.94685 692.986 C 537.4991347498309 692.986 537.94685 693.4337152501691 537.94685 693.986 C 537.94685 694.5382847498308 537.4991347498309 694.986 536.94685 694.986 Z" stroke-linecap="round" />
</g>
<g transform="matrix(1 0 0 1 267.45 824.34)"  >
<path style="stroke: none; stroke-width: 1; stroke-dasharray: none; stroke-linecap: butt; stroke-dashoffset: 0; stroke-linejoin: miter; stroke-miterlimit: 4; fill: rgb(63,61,86); fill-rule: nonzero; opacity: 1;" vector-effect="non-scaling-stroke"  transform=" translate(-327.45, -754.99)" d="M 385.94685 755.986 L 268.94685 755.986 C 268.3945652501692 755.986 267.94685 755.5382847498308 267.94685 754.986 C 267.94685 754.4337152501691 268.3945652501692 753.986 268.94685 753.986 L 385.94685 753.986 C 386.4991347498308 753.986 386.94685 754.4337152501691 386.94685 754.986 C 386.94685 755.5382847498308 386.4991347498308 755.986 385.94685 755.986 Z" stroke-linecap="round" />
</g>
<g transform="matrix(1 0 0 1 204.4 519.1)"  >
<path style="stroke: none; stroke-width: 1; stroke-dasharray: none; stroke-linecap: butt; stroke-dashoffset: 0; stroke-linejoin: miter; stroke-miterlimit: 4; fill: rgb(255,183,183); fill-rule: nonzero; opacity: 1;" vector-effect="non-scaling-stroke"  transform=" translate(-264.41, -449.76)" d="M 275.36821 481.5027 C 277.86120083915137 478.28672509309814 278.8016634080908 474.1316835587534 277.93653584347254 470.1556236720248 C 277.0714082788543 466.17956378529607 274.4895597185854 462.7909212831216 270.88572 460.90152 L 278.13372 412.581 L 255.098 423.26025 L 251.74678 467.509 C 248.91167510798417 473.91422236781466 251.31540266075186 481.42764316641376 257.3418844929111 484.9978266430071 C 263.3683663250704 488.5680101196004 271.11270342394795 487.0664638686631 275.36821 481.50271000000004 Z" stroke-linecap="round" />
</g>
<g transform="matrix(1 0 0 1 272.79 775.48)"  >
<polygon style="stroke: none; stroke-width: 1; stroke-dasharray: none; stroke-linecap: butt; stroke-dashoffset: 0; stroke-linejoin: miter; stroke-miterlimit: 4; fill: rgb(255,183,183); fill-rule: nonzero; opacity: 1;" vector-effect="non-scaling-stroke"  points="12.23,31.98 -4.35,31.97 -12.24,-31.98 12.23,-31.98 12.23,31.98 " />
</g>
<g transform="matrix(1 0 0 1 262.51 812.78)"  >
<path style="stroke: none; stroke-width: 1; stroke-dasharray: none; stroke-linecap: butt; stroke-dashoffset: 0; stroke-linejoin: miter; stroke-miterlimit: 4; fill: rgb(47,46,65); fill-rule: nonzero; opacity: 1;" vector-effect="non-scaling-stroke"  transform=" translate(-322.52, -743.43)" d="M 349.24538 754.17072 L 295.78486 754.16872 L 295.78486 753.49253 C 295.78564968268364 742.0007910738789 305.1014410630935 732.6851429560313 316.59317999999996 732.68453 L 316.5945 732.68453 L 349.24636999999996 732.68585 Z" stroke-linecap="round" />
</g>
<g transform="matrix(1 0 0 1 321.35 742.43)"  >
<polygon style="stroke: none; stroke-width: 1; stroke-dasharray: none; stroke-linecap: butt; stroke-dashoffset: 0; stroke-linejoin: miter; stroke-miterlimit: 4; fill: rgb(255,183,183); fill-rule: nonzero; opacity: 1;" vector-effect="non-scaling-stroke"  points="22.93,26.88 7.44,32.84 -22.93,-24.04 -0.08,-32.84 22.93,26.88 " />
</g>
<g transform="matrix(1 0 0 1 328.22 782.39)"  >
<path style="stroke: none; stroke-width: 1; stroke-dasharray: none; stroke-linecap: butt; stroke-dashoffset: 0; stroke-linejoin: miter; stroke-miterlimit: 4; fill: rgb(47,46,65); fill-rule: nonzero; opacity: 1;" vector-effect="non-scaling-stroke"  transform=" translate(-388.23, -713.03)" d="M 414.00789 713.44863 L 364.08261 732.67823 L 363.83936 732.04676 C 359.7061458695106 721.3148145969413 365.0546513474778 709.2641237188263 375.7861 705.1296199999999 L 375.78733 705.12915 L 406.28 693.38447 Z" stroke-linecap="round" />
</g>
<g transform="matrix(1 0 0 1 289.64 635.61)"  >
<polygon style="stroke: none; stroke-width: 1; stroke-dasharray: none; stroke-linecap: butt; stroke-dashoffset: 0; stroke-linejoin: miter; stroke-miterlimit: 4; fill: rgb(47,46,65); fill-rule: nonzero; opacity: 1;" vector-effect="non-scaling-stroke"  points="-52.8,-122.3 -57.49,-95.28 17.47,132.73 57.49,120.51 28.89,36.41 0,-88.28 -0.63,-132.73 -52.8,-122.3 " />
</g>
<g transform="matrix(1 0 0 1 296.33 650.33)"  >
<polygon style="stroke: none; stroke-width: 1; stroke-dasharray: none; stroke-linecap: butt; stroke-dashoffset: 0; stroke-linejoin: miter; stroke-miterlimit: 4; fill: rgb(47,46,65); fill-rule: nonzero; opacity: 1;" vector-effect="non-scaling-stroke"  points="-43.01,144.98 -29.51,52.67 -31.69,35.25 -7.32,-18.23 -10.13,-144.98 43.01,-137.03 22.2,26.23 -4.9,122.12 -10.34,142.81 -43.01,144.98 " />
</g>
<g transform="matrix(1 0 0 1 261.49 263.42)"  >
<circle style="stroke: none; stroke-width: 1; stroke-dasharray: none; stroke-linecap: butt; stroke-dashoffset: 0; stroke-linejoin: miter; stroke-miterlimit: 4; fill: rgb(255,184,184); fill-rule: nonzero; opacity: 1;" vector-effect="non-scaling-stroke"  cx="0" cy="0" r="30.48781" />
</g>
<g transform="matrix(1 0 0 1 260.41 239.48)"  >
<path style="stroke: none; stroke-width: 1; stroke-dasharray: none; stroke-linecap: butt; stroke-dashoffset: 0; stroke-linejoin: miter; stroke-miterlimit: 4; fill: rgb(47,46,65); fill-rule: nonzero; opacity: 1;" vector-effect="non-scaling-stroke"  transform=" translate(-320.41, -170.13)" d="M 351.57576 161.62244 C 346.71125340980325 153.72296277233716 339.0968165205763 147.9019065415211 330.198 145.27965 L 323.662 150.50844 L 326.20309999999995 144.40964 C 324.0661593354211 144.08364493006894 321.9033687327039 143.9586450075565 319.74309999999997 144.03628 L 313.86235 151.59728 L 316.29635 144.29528000000002 C 305.97977979331824 145.57731746509035 296.6694599484013 151.1153456998937 290.61876 159.569 C 283.13401 170.36136 283.63494000000003 185.36339999999998 290.99651 196.24016 C 293.0174 190.02989 293.70614 184.20924 295.727 177.99893 C 297.3152136253798 178.21543002329722 298.92492291226745 178.22326984948765 300.51516999999996 178.02225 L 302.97385999999995 172.28544000000002 L 303.66063999999994 177.77958 C 311.28112999999996 177.11558000000002 322.58419999999995 175.65804 329.80872999999997 174.32248 L 329.10627 170.10774 L 333.30921 173.61021 C 335.52267 173.10063 336.83681 172.6386 336.72821 172.28544 C 342.10121 180.94738999999998 347.42508 186.47996999999998 352.79792 195.14186 C 354.8375 182.92392 358.43807 172.768 351.57576 161.62244 Z" stroke-linecap="round" />
</g>
<g transform="matrix(1 0 0 1 286.2 411.96)"  >
<path style="stroke: none; stroke-width: 1; stroke-dasharray: none; stroke-linecap: butt; stroke-dashoffset: 0; stroke-linejoin: miter; stroke-miterlimit: 4; fill: rgb(203,203,203); fill-rule: nonzero; opacity: 1;" vector-effect="non-scaling-stroke"  transform=" translate(-346.2, -342.61)" d="M 380.71518 232.41036 C 380.71518 232.41036 322.65459999999996 227.24904 297.24237999999997 248.34016 L 289.36323 437.4205 L 293.70853 452.1755 C 293.70853 452.1755 314.49108 456.32338 339.70896 449.16869 C 364.92683999999997 442.01400000000007 399.33711 452.1755 399.33711 452.1755 L 403.03661 336.39549999999997 Z" stroke-linecap="round" />
</g>
<g transform="matrix(1 0 0 1 227.81 411.89)"  >
<path style="stroke: none; stroke-width: 1; stroke-dasharray: none; stroke-linecap: butt; stroke-dashoffset: 0; stroke-linejoin: miter; stroke-miterlimit: 4; fill: rgb(4,37,99); fill-rule: nonzero; opacity: 1;" vector-effect="non-scaling-stroke"  transform=" translate(-287.8, -342.54)" d="M 295.24043 440.92518 L 313.35943 256.98237 L 309.93987999999996 241.12116 C 309.93987999999996 241.12116 274.98346999999995 250.99369000000002 262.24607999999995 269.73992 L 285.23535999999996 429.13982999999996 L 285.23535999999996 443.95356999999996 Z" stroke-linecap="round" />
</g>
<g transform="matrix(1 0 0 1 318.86 398.66)"  >
<path style="stroke: none; stroke-width: 1; stroke-dasharray: none; stroke-linecap: butt; stroke-dashoffset: 0; stroke-linejoin: miter; stroke-miterlimit: 4; fill: rgb(4,37,99); fill-rule: nonzero; opacity: 1;" vector-effect="non-scaling-stroke"  transform=" translate(-378.85, -329.3)" d="M 376.47125 428.70966 C 376.47125 428.70966 327.86 263.81314 345.30458 233.68449 C 345.30458 233.68449 380.39369999999997 223.78958 397.15941 235.99414000000002 L 406.44541 337.27146000000005 C 406.44541 337.27146000000005 425.07594 395.17846000000003 410.78974999999997 408.79658000000006 L 413.92515999999995 422.4147300000001 C 413.92515999999995 422.4147300000001 394.8657999999999 423.53787000000005 390.78484999999995 424.0651500000001 C 386.7039 424.5924300000001 376.47125 428.70966 376.47125 428.70966 Z" stroke-linecap="round" />
</g>
<g transform="matrix(1 0 0 1 208.25 431.49)"  >
<path style="stroke: none; stroke-width: 1; stroke-dasharray: none; stroke-linecap: butt; stroke-dashoffset: 0; stroke-linejoin: miter; stroke-miterlimit: 4; fill: rgb(4,37,99); fill-rule: nonzero; opacity: 1;" vector-effect="non-scaling-stroke"  transform=" translate(-268.25, -362.14)" d="M 273.08343 268.64868 L 262.24611000000004 269.73992000000004 C 262.24611000000004 269.73992000000004 258.35038000000003 271.85566000000006 258.82938000000007 281.25975000000005 C 259.3083800000001 290.66384000000005 247.58438000000007 428.47143000000005 253.44638000000006 437.42043000000007 L 250.05313000000007 449.0915600000001 L 274.00783000000007 455.62466000000006 L 275.43106000000006 443.95357000000007 C 275.43106000000006 443.95357000000007 285.13452000000007 413.7872500000001 286.37649000000005 406.1236400000001 C 287.61846 398.4600300000001 273.08343 268.64868 273.08343 268.64868 Z" stroke-linecap="round" />
</g>
<g transform="matrix(1 0 0 1 357.49 474.05)"  >
<path style="stroke: none; stroke-width: 1; stroke-dasharray: none; stroke-linecap: butt; stroke-dashoffset: 0; stroke-linejoin: miter; stroke-miterlimit: 4; fill: rgb(255,183,183); fill-rule: nonzero; opacity: 1;" vector-effect="non-scaling-stroke"  transform=" translate(-417.49, -404.7)" d="M 392.023 426.417 C 391.932660225854 422.34891983536943 393.64885914607595 418.44976520892016 396.7098055980334 415.76871237115245 C 399.7707520499909 413.0876595333848 403.86202009072446 411.9001110696985 407.88274 412.52561 L 430.806 369.37552 L 442.96733 391.6644 L 419.33455 429.22332 C 417.80243164967465 436.0583356583407 411.4002264071111 440.66717141413517 404.43228471625815 439.9512005473819 C 397.46434302540524 439.23522968062866 392.1331543668885 433.42076268191755 392.023 426.417 Z" stroke-linecap="round" />
</g>
<g transform="matrix(1 0 0 1 362.61 397.33)"  >
<path style="stroke: none; stroke-width: 1; stroke-dasharray: none; stroke-linecap: butt; stroke-dashoffset: 0; stroke-linejoin: miter; stroke-miterlimit: 4; fill: rgb(4,37,99); fill-rule: nonzero; opacity: 1;" vector-effect="non-scaling-stroke"  transform=" translate(-422.61, -327.97)" d="M 383.16285 241.34408 L 396.07056 235.99414 C 396.07056 235.99414 417.0888 247.41846999999999 418.7735 258.69707999999997 C 420.45820000000003 269.97569 462.05315 342.99051999999995 462.05315 342.99051999999995 C 462.05315 342.99051999999995 447.18146 407.9925999999999 433.81984 411.93710999999996 L 426.55836 419.94980999999996 L 406.49607 407.02275999999995 L 412.99586 400.52296999999993 C 412.99586 400.52296999999993 412.82534 366.1367899999999 418.81948 359.97696999999994 C 418.81948 359.97696999999994 401.94776 316.79624999999993 394.32581 312.4408399999999 C 386.70385999999996 308.0854299999999 383.16285 241.34408 383.16285 241.34408 Z" stroke-linecap="round" />
</g>
<g transform="matrix(0 0 0 0 0 0)"  >
<g style=""   >
</g>
</g>
<g transform="matrix(0 0 0 0 0 0)"  >
<g style=""   >
</g>
</g>
<g transform="matrix(0 0 0 0 0 0)"  >
<g style=""   >
</g>
</g>
<g transform="matrix(0 0 0 0 0 0)"  >
<g style=""   >
</g>
</g>
<g transform="matrix(0 0 0 0 0 0)"  >
<g style=""   >
</g>
</g>
<g transform="matrix(0 0 0 0 0 0)"  >
<g style=""   >
</g>
</g>
<g transform="matrix(0 0 0 0 0 0)"  >
<g style=""   >
</g>
</g>
<g transform="matrix(0 0 0 0 0 0)"  >
<g style=""   >
</g>
</g>
<g transform="matrix(0 0 0 0 0 0)"  >
<g style=""   >
</g>
</g>
<g transform="matrix(0 0 0 0 0 0)"  >
<g style=""   >
</g>
</g>
<g transform="matrix(0 0 0 0 0 0)"  >
<g style=""   >
</g>
</g>
<g transform="matrix(0 0 0 0 0 0)"  >
<g style=""   >
</g>
</g>
<g transform="matrix(0 0 0 0 0 0)"  >
<g style=""   >
</g>
</g>
</svg>