<svg xmlns="http://www.w3.org/2000/svg" xmlns:xlink="http://www.w3.org/1999/xlink" version="1.1" width="1000" height="1000" viewBox="0 0 1000 1000" xml:space="preserve">
<desc>Created with Fabric.js 3.5.0</desc>
<defs>
</defs>
<rect x="0" y="0" width="100%" height="100%" fill="rgba(255,255,255,0)"/>
<g transform="matrix(24.9532 0 0 24.9532 500.0001 499.564)" id="246679">
<path style="stroke: none; stroke-width: 1; stroke-dasharray: none; stroke-linecap: butt; stroke-dashoffset: 0; stroke-linejoin: miter; stroke-miterlimit: 4; is-custom-font: none; font-file-url: none; fill: rgb(213,169,65); fill-rule: nonzero; opacity: 1;" vector-effect="non-scaling-stroke" transform=" translate(-24, -24)" d="M 24 23.5 q 1.45 0 2.475 -1.025 Q 27.5 21.45 27.5 20 q 0 -1.45 -1.025 -2.475 Q 25.45 16.5 24 16.5 q -1.45 0 -2.475 1.025 Q 20.5 18.55 20.5 20 q 0 1.45 1.025 2.475 Q 22.55 23.5 24 23.5 Z m 0 16.55 q 6.65 -6.05 9.825 -10.975 Q 37 24.15 37 20.4 q 0 -5.9 -3.775 -9.65 T 24 7 q -5.45 0 -9.225 3.75 Q 11 14.5 11 20.4 q 0 3.75 3.25 8.675 Q 17.5 34 24 40.05 Z M 24 44 q -8.05 -6.85 -12.025 -12.725 Q 8 25.4 8 20.4 q 0 -7.5 4.825 -11.95 Q 17.65 4 24 4 q 6.35 0 11.175 4.45 Q 40 12.9 40 20.4 q 0 5 -3.975 10.875 T 24 44 Z m 0 -23.6 Z" stroke-linecap="round"/>
</g>
</svg>