<svg xmlns="http://www.w3.org/2000/svg" xmlns:xlink="http://www.w3.org/1999/xlink" version="1.1" width="1000" height="1000" viewBox="0 0 1000 1000" xml:space="preserve">
<desc>Created with Fabric.js 3.5.0</desc>
<defs>
</defs>
<rect x="0" y="0" width="100%" height="100%" fill="rgba(255,255,255,0)"/>
<g transform="matrix(27.5715 0 0 27.5715 496.787 496.787)" id="756520">
<path style="stroke: none; stroke-width: 1; stroke-dasharray: none; stroke-linecap: butt; stroke-dashoffset: 0; stroke-linejoin: miter; stroke-miterlimit: 4; is-custom-font: none; font-file-url: none; fill: rgb(213,169,65); fill-rule: nonzero; opacity: 1;" vector-effect="non-scaling-stroke" transform=" translate(-24, -24)" d="M 39.75 42 q -6.1 0 -12.125 -3 T 16.8 31.2 Q 12 26.4 9 20.375 Q 6 14.35 6 8.25 q 0 -0.95 0.65 -1.6 Q 7.3 6 8.25 6 h 7 q 0.7 0 1.225 0.475 q 0.525 0.475 0.675 1.275 l 1.35 6.3 q 0.1 0.7 -0.025 1.275 t -0.525 0.975 l -5 5.05 q 2.8 4.65 6.275 8.1 Q 22.7 32.9 27.1 35.3 l 4.75 -4.9 q 0.5 -0.55 1.15 -0.775 q 0.65 -0.225 1.3 -0.075 l 5.95 1.3 q 0.75 0.15 1.25 0.75 T 42 33 v 6.75 q 0 0.95 -0.65 1.6 q -0.65 0.65 -1.6 0.65 Z m -28.3 -23.4 l 4.05 -4.1 L 14.35 9 H 9 q 0 1.95 0.6 4.275 t 1.85 5.325 Z M 29.9 36.75 q 2.05 0.95 4.45 1.55 q 2.4 0.6 4.65 0.7 v -5.35 l -5.15 -1.05 Z M 11.45 18.6 Z M 29.9 36.75 Z" stroke-linecap="round"/>
</g>
</svg>