<?xml version="1.0" encoding="UTF-8" standalone="no" ?>
<!DOCTYPE svg PUBLIC "-//W3C//DTD SVG 1.1//EN" "http://www.w3.org/Graphics/SVG/1.1/DTD/svg11.dtd">
<svg xmlns="http://www.w3.org/2000/svg" xmlns:xlink="http://www.w3.org/1999/xlink" version="1.1" width="1080" height="1080" viewBox="0 0 1080 1080" xml:space="preserve">
<desc>Created with Fabric.js 5.2.4</desc>
<defs>
</defs>
<g transform="matrix(1 0 0 1 540 540)" id="e3d31a1b-ae51-4528-addf-8ccb7cde9210"  >
<rect style="stroke: none; stroke-width: 1; stroke-dasharray: none; stroke-linecap: butt; stroke-dashoffset: 0; stroke-linejoin: miter; stroke-miterlimit: 4; fill: rgb(255,255,255); fill-rule: nonzero; opacity: 1; visibility: hidden;" vector-effect="non-scaling-stroke"  x="-540" y="-540" rx="0" ry="0" width="1080" height="1080" />
</g>
<g transform="matrix(1 0 0 1 540 540)" id="3ff0fa56-35cc-4a1f-8afe-97f47a018509"  >
</g>
<g transform="matrix(1 0 0 1 540 540)" id="377b58af-809b-4c29-8162-d6458b350e8d"  >
<path style="stroke: rgb(0,0,0); stroke-width: 0; stroke-dasharray: none; stroke-linecap: butt; stroke-dashoffset: 0; stroke-linejoin: miter; stroke-miterlimit: 4; fill: rgb(213,169,65); fill-rule: nonzero; opacity: 1;" vector-effect="non-scaling-stroke"  transform=" translate(-24, -24)" d="M 7 40 Q 5.8 40 4.9 39.1 Q 4 38.2 4 37 L 4 11 Q 4 9.8 4.9 8.9 Q 5.8 8 7 8 L 41 8 Q 42.2 8 43.1 8.9 Q 44 9.8 44 11 L 44 37 Q 44 38.2 43.1 39.1 Q 42.2 40 41 40 Z M 24 24.9 L 7 13.75 L 7 37 L 41 37 L 41 13.75 Z M 24 21.9 L 40.8 11 L 7.25 11 Z M 7 13.75 L 7 11 L 7 37 Z" stroke-linecap="round" />
</g>
<g transform="matrix(NaN NaN NaN NaN 0 0)"  >
<g style=""   >
</g>
</g>
<g transform="matrix(NaN NaN NaN NaN 0 0)"  >
<g style=""   >
</g>
</g>
</svg>