<?xml version="1.0" encoding="UTF-8" standalone="no" ?>
<!DOCTYPE svg PUBLIC "-//W3C//DTD SVG 1.1//EN" "http://www.w3.org/Graphics/SVG/1.1/DTD/svg11.dtd">
<svg xmlns="http://www.w3.org/2000/svg" xmlns:xlink="http://www.w3.org/1999/xlink" version="1.1" width="1080" height="1080" viewBox="0 0 1080 1080" xml:space="preserve">
<desc>Created with Fabric.js 5.2.4</desc>
<defs>
</defs>
<rect x="0" y="0" width="100%" height="100%" fill="transparent"></rect>
<g transform="matrix(1 0 0 1 540 540)" id="22e92d8a-d95a-42c5-a025-41cd2414aa1a"  >
<rect style="stroke: none; stroke-width: 1; stroke-dasharray: none; stroke-linecap: butt; stroke-dashoffset: 0; stroke-linejoin: miter; stroke-miterlimit: 4; fill: rgb(255,255,255); fill-rule: nonzero; opacity: 1; visibility: hidden;" vector-effect="non-scaling-stroke"  x="-540" y="-540" rx="0" ry="0" width="1080" height="1080" />
</g>
<g transform="matrix(1 0 0 1 540 540)" id="2fea8807-e5dc-4d27-8bab-4804729e8c3f"  >
</g>
<g transform="matrix(NaN NaN NaN NaN 0 0)"  >
<g style=""   >
</g>
</g>
<g transform="matrix(1 0 0 1 540 540)" id="12d6d6f5-eeb8-4a38-bb80-28cd3144dbcb"  >
<path style="stroke: rgb(0,0,0); stroke-width: 0; stroke-dasharray: none; stroke-linecap: butt; stroke-dashoffset: 0; stroke-linejoin: miter; stroke-miterlimit: 4; fill: rgb(213,169,65); fill-rule: nonzero; opacity: 1;" vector-effect="non-scaling-stroke"  transform=" translate(-24, -24)" d="M 39.75 42 Q 33.65 42 27.625 39 Q 21.6 36 16.8 31.2 Q 12 26.4 9 20.375 Q 6 14.35 6 8.25 Q 6 7.3 6.65 6.65 Q 7.3 6 8.25 6 L 15.25 6 Q 15.95 6 16.475 6.475 Q 17 6.949999999999999 17.150000000000002 7.75 L 18.500000000000004 14.05 Q 18.600000000000005 14.75 18.475000000000005 15.325000000000001 Q 18.350000000000005 15.900000000000002 17.950000000000006 16.3 L 12.950000000000006 21.35 Q 15.750000000000007 26 19.22500000000001 29.450000000000003 Q 22.7 32.9 27.1 35.3 L 31.85 30.4 Q 32.35 29.849999999999998 33 29.625 Q 33.65 29.4 34.3 29.55 L 40.25 30.85 Q 41 31 41.5 31.6 Q 42 32.2 42 33 L 42 39.75 Q 42 40.7 41.35 41.35 Q 40.7 42 39.75 42 Z M 11.45 18.6 L 15.5 14.500000000000002 L 14.35 9 L 9 9 Q 9 10.95 9.6 13.275 Q 10.2 15.600000000000001 11.45 18.6 Z M 29.9 36.75 Q 31.95 37.7 34.35 38.3 Q 36.75 38.9 39 39 L 39 33.65 L 33.85 32.6 Z M 11.45 18.6 Z M 29.9 36.75 Z" stroke-linecap="round" />
</g>
<g transform="matrix(NaN NaN NaN NaN 0 0)"  >
<g style=""   >
</g>
</g>
</svg>