<?xml version="1.0" standalone="no"?>
<!DOCTYPE svg PUBLIC "-//W3C//DTD SVG 20010904//EN"
 "http://www.w3.org/TR/2001/REC-SVG-20010904/DTD/svg10.dtd">
<svg version="1.0" xmlns="http://www.w3.org/2000/svg"
 width="300.000000pt" height="300.000000pt" viewBox="0 0 300.000000 300.000000"
 preserveAspectRatio="xMidYMid meet">

<g transform="translate(0.000000,300.000000) scale(0.100000,-0.100000)"
fill="#000000" stroke="none">
<path d="M2090 1932 c-136 -46 -231 -127 -292 -249 -48 -97 -61 -163 -56 -297
3 -95 8 -120 32 -172 33 -74 103 -145 171 -175 129 -57 318 -24 430 73 l39 35
-27 37 c-16 20 -33 36 -39 36 -6 0 -34 -16 -62 -35 -123 -84 -278 -64 -353 48
-100 149 -47 435 100 536 49 33 134 61 186 61 47 -1 102 -21 151 -55 46 -32
58 -29 96 21 l28 37 -39 35 c-63 55 -117 75 -220 79 -68 2 -103 -1 -145 -15z"/>
<path d="M683 1604 c-35 -277 -46 -344 -65 -382 -36 -71 -64 -87 -160 -87 -90
0 -96 -4 -97 -76 -1 -34 1 -37 37 -43 193 -31 324 48 377 229 8 28 30 183 50
345 19 162 37 307 40 323 l5 27 -73 0 -73 0 -41 -336z"/>
<path d="M1069 1938 c0 -1 -26 -209 -58 -460 l-57 -458 186 0 c213 0 277 12
349 63 89 64 138 188 112 284 -12 45 -65 98 -113 115 l-29 10 53 32 c74 44
111 107 116 196 6 102 -27 155 -123 200 -22 10 -86 15 -232 18 -112 2 -203 2
-204 0z m357 -127 c50 -23 70 -69 60 -134 -17 -103 -70 -138 -224 -145 l-103
-5 5 34 c3 19 10 77 16 129 17 154 6 140 113 140 68 0 103 -5 133 -19z m-28
-392 c102 -35 88 -209 -22 -266 -30 -15 -221 -31 -248 -20 -13 5 -8 77 22 295
1 8 222 0 248 -9z"/>
</g>
</svg>
